<?xml version="1.0" encoding="utf-8"?>
<!-- Generator: Adobe Illustrator 21.0.0, SVG Export Plug-In . SVG Version: 6.00 Build 0)  -->
<svg version="1.0" id="Capa_1" xmlns="http://www.w3.org/2000/svg" xmlns:xlink="http://www.w3.org/1999/xlink" x="0px" y="0px"
	 viewBox="0 0 288 560" style="enable-background:new 0 0 288 560;" xml:space="preserve">
<style type="text/css">
	.st0{fill:#00C4AC;}
	.st1{fill:#FF616D;}
	.st2{fill:#FFC41D;}
	.st3{fill:none;}
</style>
<rect x="53" y="217.8" class="st0" width="42.5" height="98"/>
<rect x="113.7" y="187.5" class="st1" width="42.5" height="128.3"/>
<rect x="174.3" y="248.3" class="st2" width="42.5" height="67.5"/>
<g>
	<rect x="63.7" y="187.5" class="st3" width="21.1" height="30.3"/>
	<path d="M81.9,208.7v4.6H64.6c0.2-1.7,0.8-3.4,1.7-4.9s2.8-3.6,5.6-6.2c2.2-2.1,3.6-3.5,4.1-4.2c0.7-1,1-2,1-3
		c0-1.1-0.3-1.9-0.9-2.5s-1.4-0.9-2.5-0.9c-1,0-1.9,0.3-2.5,0.9s-1,1.7-1.1,3.1l-4.9-0.5c0.3-2.7,1.2-4.7,2.8-5.9s3.5-1.8,5.8-1.8
		c2.5,0,4.5,0.7,6,2.1s2.2,3.1,2.2,5.1c0,1.2-0.2,2.3-0.6,3.3s-1.1,2.1-2,3.3c-0.6,0.8-1.7,1.9-3.2,3.3s-2.5,2.4-3,2.8
		s-0.8,0.9-1,1.4H81.9z"/>
</g>
<g>
	<rect x="124.4" y="157.2" class="st3" width="21.1" height="30.3"/>
	<path d="M138.6,183h-4.9v-18.6c-1.8,1.7-3.9,2.9-6.4,3.7v-4.5c1.3-0.4,2.7-1.2,4.2-2.4s2.5-2.6,3.1-4.1h4V183z"/>
</g>
<g>
	<rect x="185.1" y="217.8" class="st3" width="21.1" height="30.3"/>
	<path d="M186.4,236.7l4.8-0.6c0.2,1.2,0.6,2.2,1.2,2.8s1.5,1,2.4,1c1,0,1.9-0.4,2.6-1.2s1-1.8,1-3.1c0-1.2-0.3-2.2-1-3
		s-1.5-1.1-2.4-1.1c-0.6,0-1.4,0.1-2.3,0.4l0.5-4c1.3,0,2.4-0.3,3.1-0.9s1.1-1.4,1.1-2.5c0-0.9-0.3-1.6-0.8-2.1s-1.2-0.8-2.1-0.8
		c-0.8,0-1.6,0.3-2.2,0.9s-1,1.4-1.1,2.6l-4.6-0.8c0.3-1.6,0.8-2.8,1.4-3.7s1.5-1.7,2.7-2.2s2.4-0.8,3.8-0.8c2.4,0,4.4,0.8,5.8,2.3
		c1.2,1.3,1.8,2.7,1.8,4.3c0,2.3-1.2,4.1-3.7,5.4c1.5,0.3,2.7,1,3.5,2.1s1.3,2.4,1.3,4c0,2.3-0.8,4.2-2.5,5.8s-3.7,2.4-6.2,2.4
		c-2.3,0-4.3-0.7-5.8-2S186.7,238.9,186.4,236.7z"/>
</g>
<g>
</g>
<g>
</g>
<g>
</g>
<g>
</g>
<g>
</g>
</svg>
